<mxfile host="Electron" modified="2023-10-27T03:30:34.089Z" agent="Mozilla/5.0 (Windows NT 10.0; Win64; x64) AppleWebKit/537.36 (KHTML, like Gecko) draw.io/22.0.2 Chrome/114.0.5735.289 Electron/25.8.4 Safari/537.36" etag="Thgj3skgCaPw31sHnDAZ" version="22.0.2" type="device">
  <diagram name="페이지-1" id="mhmsSpRrgJDqJ-asprNO">
    <mxGraphModel dx="1436" dy="968" grid="1" gridSize="10" guides="1" tooltips="1" connect="1" arrows="1" fold="1" page="1" pageScale="1" pageWidth="827" pageHeight="1169" math="0" shadow="0">
      <root>
        <mxCell id="0" />
        <mxCell id="1" parent="0" />
        <mxCell id="lbl2z9FatFeXP5gyk-8b-1" value="부모 노드&lt;br&gt;(parent node)" style="ellipse;whiteSpace=wrap;html=1;" vertex="1" parent="1">
          <mxGeometry x="120" y="20" width="120" height="80" as="geometry" />
        </mxCell>
        <mxCell id="lbl2z9FatFeXP5gyk-8b-2" value="왼쪽 자식 노드&lt;br&gt;(left child node)" style="ellipse;whiteSpace=wrap;html=1;" vertex="1" parent="1">
          <mxGeometry x="40" y="140" width="120" height="80" as="geometry" />
        </mxCell>
        <mxCell id="lbl2z9FatFeXP5gyk-8b-3" value="오른쪽 자식 노드&lt;br&gt;(right child node)" style="ellipse;whiteSpace=wrap;html=1;" vertex="1" parent="1">
          <mxGeometry x="200" y="140" width="120" height="80" as="geometry" />
        </mxCell>
        <mxCell id="lbl2z9FatFeXP5gyk-8b-4" value="" style="endArrow=none;html=1;rounded=0;entryX=0;entryY=1;entryDx=0;entryDy=0;exitX=0.5;exitY=0;exitDx=0;exitDy=0;" edge="1" parent="1" source="lbl2z9FatFeXP5gyk-8b-2" target="lbl2z9FatFeXP5gyk-8b-1">
          <mxGeometry width="50" height="50" relative="1" as="geometry">
            <mxPoint x="270" y="380" as="sourcePoint" />
            <mxPoint x="320" y="330" as="targetPoint" />
          </mxGeometry>
        </mxCell>
        <mxCell id="lbl2z9FatFeXP5gyk-8b-5" value="" style="endArrow=none;html=1;rounded=0;entryX=1;entryY=1;entryDx=0;entryDy=0;exitX=0.5;exitY=0;exitDx=0;exitDy=0;" edge="1" parent="1" source="lbl2z9FatFeXP5gyk-8b-3" target="lbl2z9FatFeXP5gyk-8b-1">
          <mxGeometry width="50" height="50" relative="1" as="geometry">
            <mxPoint x="110" y="150" as="sourcePoint" />
            <mxPoint x="148" y="98" as="targetPoint" />
          </mxGeometry>
        </mxCell>
        <mxCell id="lbl2z9FatFeXP5gyk-8b-6" value="&lt;b&gt;&lt;font style=&quot;font-size: 15px;&quot;&gt;23, 10, 48, 15, 7, 22, 56&lt;/font&gt;&lt;/b&gt;" style="text;html=1;strokeColor=default;fillColor=none;align=center;verticalAlign=middle;whiteSpace=wrap;rounded=0;" vertex="1" parent="1">
          <mxGeometry x="40" y="280" width="360" height="40" as="geometry" />
        </mxCell>
        <mxCell id="lbl2z9FatFeXP5gyk-8b-7" value="23" style="ellipse;whiteSpace=wrap;html=1;" vertex="1" parent="1">
          <mxGeometry x="40" y="360" width="80" height="60" as="geometry" />
        </mxCell>
        <mxCell id="lbl2z9FatFeXP5gyk-8b-8" value="" style="shape=flexArrow;endArrow=classic;html=1;rounded=0;width=28;endSize=7.56;fillColor=#f8cecc;strokeColor=#b85450;" edge="1" parent="1">
          <mxGeometry width="50" height="50" relative="1" as="geometry">
            <mxPoint x="160" y="389.5" as="sourcePoint" />
            <mxPoint x="210" y="390" as="targetPoint" />
          </mxGeometry>
        </mxCell>
        <mxCell id="lbl2z9FatFeXP5gyk-8b-9" value="23" style="ellipse;whiteSpace=wrap;html=1;" vertex="1" parent="1">
          <mxGeometry x="290" y="330" width="80" height="60" as="geometry" />
        </mxCell>
        <mxCell id="lbl2z9FatFeXP5gyk-8b-10" value="10" style="ellipse;whiteSpace=wrap;html=1;fillColor=#f8cecc;strokeColor=#b85450;" vertex="1" parent="1">
          <mxGeometry x="230" y="420" width="80" height="60" as="geometry" />
        </mxCell>
        <mxCell id="lbl2z9FatFeXP5gyk-8b-11" value="" style="endArrow=none;html=1;rounded=0;entryX=0;entryY=1;entryDx=0;entryDy=0;exitX=0.5;exitY=0;exitDx=0;exitDy=0;" edge="1" parent="1" source="lbl2z9FatFeXP5gyk-8b-10" target="lbl2z9FatFeXP5gyk-8b-9">
          <mxGeometry width="50" height="50" relative="1" as="geometry">
            <mxPoint x="550" y="450" as="sourcePoint" />
            <mxPoint x="600" y="400" as="targetPoint" />
          </mxGeometry>
        </mxCell>
        <mxCell id="lbl2z9FatFeXP5gyk-8b-12" value="" style="shape=flexArrow;endArrow=classic;html=1;rounded=0;width=28;endSize=7.56;fillColor=#f8cecc;strokeColor=#b85450;" edge="1" parent="1">
          <mxGeometry width="50" height="50" relative="1" as="geometry">
            <mxPoint x="400" y="390" as="sourcePoint" />
            <mxPoint x="450" y="390.5" as="targetPoint" />
          </mxGeometry>
        </mxCell>
        <mxCell id="lbl2z9FatFeXP5gyk-8b-13" value="23" style="ellipse;whiteSpace=wrap;html=1;" vertex="1" parent="1">
          <mxGeometry x="540" y="330" width="80" height="60" as="geometry" />
        </mxCell>
        <mxCell id="lbl2z9FatFeXP5gyk-8b-14" value="10" style="ellipse;whiteSpace=wrap;html=1;fillColor=#bac8d3;strokeColor=#23445d;" vertex="1" parent="1">
          <mxGeometry x="480" y="420" width="80" height="60" as="geometry" />
        </mxCell>
        <mxCell id="lbl2z9FatFeXP5gyk-8b-15" value="" style="endArrow=none;html=1;rounded=0;entryX=0;entryY=1;entryDx=0;entryDy=0;exitX=0.5;exitY=0;exitDx=0;exitDy=0;" edge="1" parent="1" source="lbl2z9FatFeXP5gyk-8b-14" target="lbl2z9FatFeXP5gyk-8b-13">
          <mxGeometry width="50" height="50" relative="1" as="geometry">
            <mxPoint x="800" y="450" as="sourcePoint" />
            <mxPoint x="850" y="400" as="targetPoint" />
          </mxGeometry>
        </mxCell>
        <mxCell id="lbl2z9FatFeXP5gyk-8b-16" value="48" style="ellipse;whiteSpace=wrap;html=1;fillColor=#f8cecc;strokeColor=#b85450;" vertex="1" parent="1">
          <mxGeometry x="600" y="420" width="80" height="60" as="geometry" />
        </mxCell>
        <mxCell id="lbl2z9FatFeXP5gyk-8b-17" value="" style="endArrow=none;html=1;rounded=0;entryX=1;entryY=1;entryDx=0;entryDy=0;exitX=0.5;exitY=0;exitDx=0;exitDy=0;" edge="1" parent="1" source="lbl2z9FatFeXP5gyk-8b-16" target="lbl2z9FatFeXP5gyk-8b-13">
          <mxGeometry width="50" height="50" relative="1" as="geometry">
            <mxPoint x="530" y="430" as="sourcePoint" />
            <mxPoint x="562" y="391" as="targetPoint" />
          </mxGeometry>
        </mxCell>
        <mxCell id="lbl2z9FatFeXP5gyk-8b-18" value="10은 23보다 작음" style="text;html=1;strokeColor=none;fillColor=none;align=center;verticalAlign=middle;whiteSpace=wrap;rounded=0;" vertex="1" parent="1">
          <mxGeometry x="120" y="425" width="110" height="50" as="geometry" />
        </mxCell>
        <mxCell id="lbl2z9FatFeXP5gyk-8b-19" value="48은 23보다 큼" style="text;html=1;strokeColor=none;fillColor=none;align=center;verticalAlign=middle;whiteSpace=wrap;rounded=0;" vertex="1" parent="1">
          <mxGeometry x="370" y="425" width="110" height="50" as="geometry" />
        </mxCell>
        <mxCell id="lbl2z9FatFeXP5gyk-8b-20" value="" style="shape=flexArrow;endArrow=classic;html=1;rounded=0;width=28;endSize=7.56;fillColor=#f8cecc;strokeColor=#b85450;" edge="1" parent="1">
          <mxGeometry width="50" height="50" relative="1" as="geometry">
            <mxPoint x="730" y="390" as="sourcePoint" />
            <mxPoint x="780" y="390.5" as="targetPoint" />
          </mxGeometry>
        </mxCell>
        <mxCell id="lbl2z9FatFeXP5gyk-8b-21" value="23" style="ellipse;whiteSpace=wrap;html=1;" vertex="1" parent="1">
          <mxGeometry x="870" y="330" width="80" height="60" as="geometry" />
        </mxCell>
        <mxCell id="lbl2z9FatFeXP5gyk-8b-22" value="10" style="ellipse;whiteSpace=wrap;html=1;fillColor=#bac8d3;strokeColor=#23445d;" vertex="1" parent="1">
          <mxGeometry x="810" y="420" width="80" height="60" as="geometry" />
        </mxCell>
        <mxCell id="lbl2z9FatFeXP5gyk-8b-23" value="" style="endArrow=none;html=1;rounded=0;entryX=0;entryY=1;entryDx=0;entryDy=0;exitX=0.5;exitY=0;exitDx=0;exitDy=0;" edge="1" parent="1" source="lbl2z9FatFeXP5gyk-8b-22" target="lbl2z9FatFeXP5gyk-8b-21">
          <mxGeometry width="50" height="50" relative="1" as="geometry">
            <mxPoint x="1130" y="450" as="sourcePoint" />
            <mxPoint x="1180" y="400" as="targetPoint" />
          </mxGeometry>
        </mxCell>
        <mxCell id="lbl2z9FatFeXP5gyk-8b-24" value="48" style="ellipse;whiteSpace=wrap;html=1;fillColor=#bac8d3;strokeColor=#23445d;" vertex="1" parent="1">
          <mxGeometry x="930" y="420" width="80" height="60" as="geometry" />
        </mxCell>
        <mxCell id="lbl2z9FatFeXP5gyk-8b-25" value="" style="endArrow=none;html=1;rounded=0;entryX=1;entryY=1;entryDx=0;entryDy=0;exitX=0.5;exitY=0;exitDx=0;exitDy=0;" edge="1" parent="1" source="lbl2z9FatFeXP5gyk-8b-24" target="lbl2z9FatFeXP5gyk-8b-21">
          <mxGeometry width="50" height="50" relative="1" as="geometry">
            <mxPoint x="860" y="430" as="sourcePoint" />
            <mxPoint x="892" y="391" as="targetPoint" />
          </mxGeometry>
        </mxCell>
        <mxCell id="lbl2z9FatFeXP5gyk-8b-26" value="15" style="ellipse;whiteSpace=wrap;html=1;fillColor=#f8cecc;strokeColor=#b85450;" vertex="1" parent="1">
          <mxGeometry x="870" y="510" width="80" height="60" as="geometry" />
        </mxCell>
        <mxCell id="lbl2z9FatFeXP5gyk-8b-27" value="" style="endArrow=none;html=1;rounded=0;entryX=1;entryY=1;entryDx=0;entryDy=0;exitX=0.5;exitY=0;exitDx=0;exitDy=0;" edge="1" parent="1" source="lbl2z9FatFeXP5gyk-8b-26" target="lbl2z9FatFeXP5gyk-8b-22">
          <mxGeometry width="50" height="50" relative="1" as="geometry">
            <mxPoint x="980" y="430" as="sourcePoint" />
            <mxPoint x="948" y="391" as="targetPoint" />
          </mxGeometry>
        </mxCell>
        <mxCell id="lbl2z9FatFeXP5gyk-8b-28" value="15는 23보다 크고, 10보다는 작음" style="text;html=1;strokeColor=none;fillColor=none;align=center;verticalAlign=middle;whiteSpace=wrap;rounded=0;" vertex="1" parent="1">
          <mxGeometry x="755" y="515" width="110" height="50" as="geometry" />
        </mxCell>
        <mxCell id="lbl2z9FatFeXP5gyk-8b-29" value="" style="shape=flexArrow;endArrow=classic;html=1;rounded=0;width=28;endSize=7.56;fillColor=#f8cecc;strokeColor=#b85450;" edge="1" parent="1">
          <mxGeometry width="50" height="50" relative="1" as="geometry">
            <mxPoint x="30" y="690" as="sourcePoint" />
            <mxPoint x="80" y="690.5" as="targetPoint" />
          </mxGeometry>
        </mxCell>
        <mxCell id="lbl2z9FatFeXP5gyk-8b-30" value="23" style="ellipse;whiteSpace=wrap;html=1;" vertex="1" parent="1">
          <mxGeometry x="180" y="620" width="80" height="60" as="geometry" />
        </mxCell>
        <mxCell id="lbl2z9FatFeXP5gyk-8b-31" value="10" style="ellipse;whiteSpace=wrap;html=1;fillColor=#bac8d3;strokeColor=#23445d;" vertex="1" parent="1">
          <mxGeometry x="120" y="710" width="80" height="60" as="geometry" />
        </mxCell>
        <mxCell id="lbl2z9FatFeXP5gyk-8b-32" value="" style="endArrow=none;html=1;rounded=0;entryX=0;entryY=1;entryDx=0;entryDy=0;exitX=0.5;exitY=0;exitDx=0;exitDy=0;" edge="1" parent="1" source="lbl2z9FatFeXP5gyk-8b-31" target="lbl2z9FatFeXP5gyk-8b-30">
          <mxGeometry width="50" height="50" relative="1" as="geometry">
            <mxPoint x="440" y="740" as="sourcePoint" />
            <mxPoint x="490" y="690" as="targetPoint" />
          </mxGeometry>
        </mxCell>
        <mxCell id="lbl2z9FatFeXP5gyk-8b-33" value="48" style="ellipse;whiteSpace=wrap;html=1;fillColor=#bac8d3;strokeColor=#23445d;" vertex="1" parent="1">
          <mxGeometry x="240" y="710" width="80" height="60" as="geometry" />
        </mxCell>
        <mxCell id="lbl2z9FatFeXP5gyk-8b-34" value="" style="endArrow=none;html=1;rounded=0;entryX=1;entryY=1;entryDx=0;entryDy=0;exitX=0.5;exitY=0;exitDx=0;exitDy=0;" edge="1" parent="1" source="lbl2z9FatFeXP5gyk-8b-33" target="lbl2z9FatFeXP5gyk-8b-30">
          <mxGeometry width="50" height="50" relative="1" as="geometry">
            <mxPoint x="170" y="720" as="sourcePoint" />
            <mxPoint x="202" y="681" as="targetPoint" />
          </mxGeometry>
        </mxCell>
        <mxCell id="lbl2z9FatFeXP5gyk-8b-35" value="15" style="ellipse;whiteSpace=wrap;html=1;fillColor=#bac8d3;strokeColor=#23445d;" vertex="1" parent="1">
          <mxGeometry x="180" y="800" width="80" height="60" as="geometry" />
        </mxCell>
        <mxCell id="lbl2z9FatFeXP5gyk-8b-36" value="" style="endArrow=none;html=1;rounded=0;entryX=1;entryY=1;entryDx=0;entryDy=0;exitX=0.5;exitY=0;exitDx=0;exitDy=0;" edge="1" parent="1" source="lbl2z9FatFeXP5gyk-8b-35" target="lbl2z9FatFeXP5gyk-8b-31">
          <mxGeometry width="50" height="50" relative="1" as="geometry">
            <mxPoint x="290" y="720" as="sourcePoint" />
            <mxPoint x="258" y="681" as="targetPoint" />
          </mxGeometry>
        </mxCell>
        <mxCell id="lbl2z9FatFeXP5gyk-8b-38" value="7" style="ellipse;whiteSpace=wrap;html=1;fillColor=#f8cecc;strokeColor=#b85450;" vertex="1" parent="1">
          <mxGeometry x="60" y="800" width="80" height="60" as="geometry" />
        </mxCell>
        <mxCell id="lbl2z9FatFeXP5gyk-8b-39" value="" style="endArrow=none;html=1;rounded=0;entryX=0.5;entryY=0;entryDx=0;entryDy=0;exitX=0;exitY=1;exitDx=0;exitDy=0;" edge="1" parent="1" source="lbl2z9FatFeXP5gyk-8b-31" target="lbl2z9FatFeXP5gyk-8b-38">
          <mxGeometry width="50" height="50" relative="1" as="geometry">
            <mxPoint x="220" y="640" as="sourcePoint" />
            <mxPoint x="270" y="590" as="targetPoint" />
          </mxGeometry>
        </mxCell>
        <mxCell id="lbl2z9FatFeXP5gyk-8b-40" value="7은 23보다 작고, &lt;br&gt;10보다 작음" style="text;html=1;strokeColor=none;fillColor=none;align=center;verticalAlign=middle;whiteSpace=wrap;rounded=0;" vertex="1" parent="1">
          <mxGeometry x="40" y="870" width="110" height="50" as="geometry" />
        </mxCell>
        <mxCell id="lbl2z9FatFeXP5gyk-8b-43" value="" style="shape=flexArrow;endArrow=classic;html=1;rounded=0;width=28;endSize=7.56;fillColor=#f8cecc;strokeColor=#b85450;" edge="1" parent="1">
          <mxGeometry width="50" height="50" relative="1" as="geometry">
            <mxPoint x="360" y="690" as="sourcePoint" />
            <mxPoint x="410" y="690.5" as="targetPoint" />
          </mxGeometry>
        </mxCell>
        <mxCell id="lbl2z9FatFeXP5gyk-8b-44" value="23" style="ellipse;whiteSpace=wrap;html=1;" vertex="1" parent="1">
          <mxGeometry x="550" y="620" width="80" height="60" as="geometry" />
        </mxCell>
        <mxCell id="lbl2z9FatFeXP5gyk-8b-45" value="10" style="ellipse;whiteSpace=wrap;html=1;fillColor=#bac8d3;strokeColor=#23445d;" vertex="1" parent="1">
          <mxGeometry x="490" y="710" width="80" height="60" as="geometry" />
        </mxCell>
        <mxCell id="lbl2z9FatFeXP5gyk-8b-46" value="" style="endArrow=none;html=1;rounded=0;entryX=0;entryY=1;entryDx=0;entryDy=0;exitX=0.5;exitY=0;exitDx=0;exitDy=0;" edge="1" parent="1" source="lbl2z9FatFeXP5gyk-8b-45" target="lbl2z9FatFeXP5gyk-8b-44">
          <mxGeometry width="50" height="50" relative="1" as="geometry">
            <mxPoint x="810" y="740" as="sourcePoint" />
            <mxPoint x="860" y="690" as="targetPoint" />
          </mxGeometry>
        </mxCell>
        <mxCell id="lbl2z9FatFeXP5gyk-8b-47" value="48" style="ellipse;whiteSpace=wrap;html=1;fillColor=#bac8d3;strokeColor=#23445d;" vertex="1" parent="1">
          <mxGeometry x="610" y="710" width="80" height="60" as="geometry" />
        </mxCell>
        <mxCell id="lbl2z9FatFeXP5gyk-8b-48" value="" style="endArrow=none;html=1;rounded=0;entryX=1;entryY=1;entryDx=0;entryDy=0;exitX=0.5;exitY=0;exitDx=0;exitDy=0;" edge="1" parent="1" source="lbl2z9FatFeXP5gyk-8b-47" target="lbl2z9FatFeXP5gyk-8b-44">
          <mxGeometry width="50" height="50" relative="1" as="geometry">
            <mxPoint x="540" y="720" as="sourcePoint" />
            <mxPoint x="572" y="681" as="targetPoint" />
          </mxGeometry>
        </mxCell>
        <mxCell id="lbl2z9FatFeXP5gyk-8b-49" value="15" style="ellipse;whiteSpace=wrap;html=1;fillColor=#bac8d3;strokeColor=#23445d;" vertex="1" parent="1">
          <mxGeometry x="550" y="800" width="80" height="60" as="geometry" />
        </mxCell>
        <mxCell id="lbl2z9FatFeXP5gyk-8b-50" value="" style="endArrow=none;html=1;rounded=0;entryX=1;entryY=1;entryDx=0;entryDy=0;exitX=0.5;exitY=0;exitDx=0;exitDy=0;" edge="1" parent="1" source="lbl2z9FatFeXP5gyk-8b-49" target="lbl2z9FatFeXP5gyk-8b-45">
          <mxGeometry width="50" height="50" relative="1" as="geometry">
            <mxPoint x="660" y="720" as="sourcePoint" />
            <mxPoint x="628" y="681" as="targetPoint" />
          </mxGeometry>
        </mxCell>
        <mxCell id="lbl2z9FatFeXP5gyk-8b-51" value="7" style="ellipse;whiteSpace=wrap;html=1;fillColor=#bac8d3;strokeColor=#23445d;" vertex="1" parent="1">
          <mxGeometry x="430" y="800" width="80" height="60" as="geometry" />
        </mxCell>
        <mxCell id="lbl2z9FatFeXP5gyk-8b-52" value="" style="endArrow=none;html=1;rounded=0;entryX=0.5;entryY=0;entryDx=0;entryDy=0;exitX=0;exitY=1;exitDx=0;exitDy=0;" edge="1" parent="1" source="lbl2z9FatFeXP5gyk-8b-45" target="lbl2z9FatFeXP5gyk-8b-51">
          <mxGeometry width="50" height="50" relative="1" as="geometry">
            <mxPoint x="590" y="640" as="sourcePoint" />
            <mxPoint x="640" y="590" as="targetPoint" />
          </mxGeometry>
        </mxCell>
        <mxCell id="lbl2z9FatFeXP5gyk-8b-53" value="22" style="ellipse;whiteSpace=wrap;html=1;fillColor=#f8cecc;strokeColor=#b85450;" vertex="1" parent="1">
          <mxGeometry x="610" y="890" width="80" height="60" as="geometry" />
        </mxCell>
        <mxCell id="lbl2z9FatFeXP5gyk-8b-54" value="" style="endArrow=none;html=1;rounded=0;entryX=1;entryY=1;entryDx=0;entryDy=0;exitX=0.5;exitY=0;exitDx=0;exitDy=0;" edge="1" parent="1" source="lbl2z9FatFeXP5gyk-8b-53" target="lbl2z9FatFeXP5gyk-8b-49">
          <mxGeometry width="50" height="50" relative="1" as="geometry">
            <mxPoint x="646" y="894" as="sourcePoint" />
            <mxPoint x="614" y="855" as="targetPoint" />
          </mxGeometry>
        </mxCell>
        <mxCell id="lbl2z9FatFeXP5gyk-8b-55" value="22는 23보다 작고, 10보다 크고, &lt;br&gt;15보다 큼" style="text;html=1;strokeColor=none;fillColor=none;align=center;verticalAlign=middle;whiteSpace=wrap;rounded=0;" vertex="1" parent="1">
          <mxGeometry x="460" y="890" width="110" height="50" as="geometry" />
        </mxCell>
        <mxCell id="lbl2z9FatFeXP5gyk-8b-56" value="" style="shape=flexArrow;endArrow=classic;html=1;rounded=0;width=28;endSize=7.56;fillColor=#f8cecc;strokeColor=#b85450;" edge="1" parent="1">
          <mxGeometry width="50" height="50" relative="1" as="geometry">
            <mxPoint x="785" y="690" as="sourcePoint" />
            <mxPoint x="835" y="690.5" as="targetPoint" />
          </mxGeometry>
        </mxCell>
        <mxCell id="lbl2z9FatFeXP5gyk-8b-79" value="23" style="ellipse;whiteSpace=wrap;html=1;" vertex="1" parent="1">
          <mxGeometry x="970" y="620" width="80" height="60" as="geometry" />
        </mxCell>
        <mxCell id="lbl2z9FatFeXP5gyk-8b-80" value="10" style="ellipse;whiteSpace=wrap;html=1;fillColor=#bac8d3;strokeColor=#23445d;" vertex="1" parent="1">
          <mxGeometry x="910" y="710" width="80" height="60" as="geometry" />
        </mxCell>
        <mxCell id="lbl2z9FatFeXP5gyk-8b-81" value="" style="endArrow=none;html=1;rounded=0;entryX=0;entryY=1;entryDx=0;entryDy=0;exitX=0.5;exitY=0;exitDx=0;exitDy=0;" edge="1" parent="1" source="lbl2z9FatFeXP5gyk-8b-80" target="lbl2z9FatFeXP5gyk-8b-79">
          <mxGeometry width="50" height="50" relative="1" as="geometry">
            <mxPoint x="1230" y="740" as="sourcePoint" />
            <mxPoint x="1280" y="690" as="targetPoint" />
          </mxGeometry>
        </mxCell>
        <mxCell id="lbl2z9FatFeXP5gyk-8b-82" value="48" style="ellipse;whiteSpace=wrap;html=1;fillColor=#bac8d3;strokeColor=#23445d;" vertex="1" parent="1">
          <mxGeometry x="1030" y="710" width="80" height="60" as="geometry" />
        </mxCell>
        <mxCell id="lbl2z9FatFeXP5gyk-8b-83" value="" style="endArrow=none;html=1;rounded=0;entryX=1;entryY=1;entryDx=0;entryDy=0;exitX=0.5;exitY=0;exitDx=0;exitDy=0;" edge="1" parent="1" source="lbl2z9FatFeXP5gyk-8b-82" target="lbl2z9FatFeXP5gyk-8b-79">
          <mxGeometry width="50" height="50" relative="1" as="geometry">
            <mxPoint x="960" y="720" as="sourcePoint" />
            <mxPoint x="992" y="681" as="targetPoint" />
          </mxGeometry>
        </mxCell>
        <mxCell id="lbl2z9FatFeXP5gyk-8b-84" value="15" style="ellipse;whiteSpace=wrap;html=1;fillColor=#bac8d3;strokeColor=#23445d;" vertex="1" parent="1">
          <mxGeometry x="970" y="800" width="80" height="60" as="geometry" />
        </mxCell>
        <mxCell id="lbl2z9FatFeXP5gyk-8b-85" value="" style="endArrow=none;html=1;rounded=0;entryX=1;entryY=1;entryDx=0;entryDy=0;exitX=0.5;exitY=0;exitDx=0;exitDy=0;" edge="1" parent="1" source="lbl2z9FatFeXP5gyk-8b-84" target="lbl2z9FatFeXP5gyk-8b-80">
          <mxGeometry width="50" height="50" relative="1" as="geometry">
            <mxPoint x="1080" y="720" as="sourcePoint" />
            <mxPoint x="1048" y="681" as="targetPoint" />
          </mxGeometry>
        </mxCell>
        <mxCell id="lbl2z9FatFeXP5gyk-8b-86" value="7" style="ellipse;whiteSpace=wrap;html=1;fillColor=#bac8d3;strokeColor=#23445d;" vertex="1" parent="1">
          <mxGeometry x="850" y="800" width="80" height="60" as="geometry" />
        </mxCell>
        <mxCell id="lbl2z9FatFeXP5gyk-8b-87" value="" style="endArrow=none;html=1;rounded=0;entryX=0.5;entryY=0;entryDx=0;entryDy=0;exitX=0;exitY=1;exitDx=0;exitDy=0;" edge="1" parent="1" source="lbl2z9FatFeXP5gyk-8b-80" target="lbl2z9FatFeXP5gyk-8b-86">
          <mxGeometry width="50" height="50" relative="1" as="geometry">
            <mxPoint x="1010" y="640" as="sourcePoint" />
            <mxPoint x="1060" y="590" as="targetPoint" />
          </mxGeometry>
        </mxCell>
        <mxCell id="lbl2z9FatFeXP5gyk-8b-88" value="22" style="ellipse;whiteSpace=wrap;html=1;fillColor=#bac8d3;strokeColor=#23445d;" vertex="1" parent="1">
          <mxGeometry x="1030" y="890" width="80" height="60" as="geometry" />
        </mxCell>
        <mxCell id="lbl2z9FatFeXP5gyk-8b-89" value="" style="endArrow=none;html=1;rounded=0;entryX=1;entryY=1;entryDx=0;entryDy=0;exitX=0.5;exitY=0;exitDx=0;exitDy=0;" edge="1" parent="1" source="lbl2z9FatFeXP5gyk-8b-88" target="lbl2z9FatFeXP5gyk-8b-84">
          <mxGeometry width="50" height="50" relative="1" as="geometry">
            <mxPoint x="1066" y="894" as="sourcePoint" />
            <mxPoint x="1034" y="855" as="targetPoint" />
          </mxGeometry>
        </mxCell>
        <mxCell id="lbl2z9FatFeXP5gyk-8b-90" value="56은 23보다 크고, 48보다 큼" style="text;html=1;strokeColor=none;fillColor=none;align=center;verticalAlign=middle;whiteSpace=wrap;rounded=0;" vertex="1" parent="1">
          <mxGeometry x="880" y="890" width="110" height="50" as="geometry" />
        </mxCell>
        <mxCell id="lbl2z9FatFeXP5gyk-8b-91" value="56" style="ellipse;whiteSpace=wrap;html=1;fillColor=#f8cecc;strokeColor=#b85450;" vertex="1" parent="1">
          <mxGeometry x="1100" y="789" width="80" height="60" as="geometry" />
        </mxCell>
        <mxCell id="lbl2z9FatFeXP5gyk-8b-92" value="" style="endArrow=none;html=1;rounded=0;entryX=1;entryY=1;entryDx=0;entryDy=0;exitX=0.5;exitY=0;exitDx=0;exitDy=0;" edge="1" parent="1" source="lbl2z9FatFeXP5gyk-8b-91">
          <mxGeometry width="50" height="50" relative="1" as="geometry">
            <mxPoint x="1136" y="793" as="sourcePoint" />
            <mxPoint x="1108" y="750" as="targetPoint" />
          </mxGeometry>
        </mxCell>
      </root>
    </mxGraphModel>
  </diagram>
</mxfile>
